<svg xmlns="http://www.w3.org/2000/svg" width="166.876" height="199" viewBox="0 0 166.876 199">
  <g id="humaaans_sitting-1" data-name="humaaans/sitting-1" transform="translate(-18 -17)">
    <g id="A-Human_Sitting" data-name="A-Human/Sitting" transform="translate(184.876 216) rotate(180)">
      <g id="Head_Front_Airy" data-name="Head/Front/Airy" transform="translate(0 139.054)">
        <g id="Head" transform="translate(66.426 0)">
          <path id="Trazado_5" data-name="Trazado 5" d="M4.462,20.8A14.63,14.63,0,0,0,.571,31.309c.811,11.557,16.9,9.015,20.029,3.182s2.758-20.63-1.287-21.672c-1.613-.416-5.049.6-8.546,2.711L12.961,0H0Z" fill="#b28b67" fill-rule="evenodd"/>
        </g>
        <path id="hair" d="M79.638,21.211c-1.708.28-6.308.473-7.156.473-.542,0-1.13-.124-1.451.374-.263.408-.167,1.1-.245,1.57-.091.549-.221,1.092-.351,1.633a16.6,16.6,0,0,1-1.724,4.379,13.46,13.46,0,0,1-6.38,5.776,20.488,20.488,0,0,1-9.687,1.332,42.526,42.526,0,0,1-9.906-2.509,20.761,20.761,0,0,0-9.676-.932c-3.3.506-5.787,2.293-8.567,3.988a15.959,15.959,0,0,1-9.464,2.61A18.226,18.226,0,0,1,6.4,36.633,14.084,14.084,0,0,1,.833,30.317c-1.218-2.952-1.217-6.193.786-8.8,2.9-3.782,8.291-4.76,12.774-4.663a24.406,24.406,0,0,1,7.588,1.39c3.265,1.148,6.086,3.095,9.141,4.674A23.786,23.786,0,0,0,35.59,24.7a4.983,4.983,0,0,0,4.356-.29A20.57,20.57,0,0,1,44.334,21.9a14.153,14.153,0,0,1,4.95-.889c3.284.025,6.521,1.049,9.71,1.734,2.6.559,5.384,1.116,8.035.579,1.106-.224,2.723-.687,3.122-1.837-6.726-1.219-9.368-9.537-7.472-15.644C63.7,2.55,69.856-1.3,72.248.43c1.515,1.1.6,2.539,0,3.49-1.14,1.822-1.53,4.162.579,5.43,1.82,1.094,3.733-1.5,3.769-1.5.5.039,4.822,2.484,7.8,6.05,2.938-.174,3.383,1.763,2.682,3.347S82,20.824,79.638,21.211Z" transform="translate(0 20.003)" fill="#191847" fill-rule="evenodd"/>
      </g>
      <g id="Bottom_Sitting_Sweat-Pants" data-name="Bottom/Sitting/Sweat-Pants" transform="translate(19.191 0)">
        <g id="Objects_Seat_Ball" data-name="Objects/Seat/Ball" transform="translate(0 0)">
          <ellipse id="Ballsy-Ball" cx="42" cy="40" rx="42" ry="40" transform="translate(-0.314 0)" fill="#c5cfd6"/>
        </g>
        <path id="Skin" d="M82.288,0c-6.92,15.315-11.924,28.651-13.932,35.687C64.917,47.734,62.3,58.335,61.639,62.294c-1.577,9.44,12.131,9.99,13.943,5.3,2.742-7.1,7.53-30.432,13.283-65.673ZM2.025,48.063c6.349,2.509,28.582,10.363,39.3,12.584,3.082.638,6.068,1.232,8.876,1.768,8.346,1.593,12.67-13.463,4.632-14.62C34.819,44.914,6.44,41.939,4.011,41.6.607,41.137-1.965,46.486,2.025,48.063Z" transform="translate(38.129 6.385)" fill="#b28b67" fill-rule="evenodd"/>
        <path id="Leg-Back" d="M34.34,53.587,0,71.068v3.806H4.084Q53.918,62.175,55.015,58.6c.008-.026.015-.051.022-.077l.049-.066C61.669,49.4,65.613,5.192,66.907,1.882L54.29,0C49.464,17.9,34.023,30.363,34.433,51.8A7.037,7.037,0,0,0,34.34,53.587Z" transform="translate(59.117 19.356)" fill="#1f28cf" fill-rule="evenodd"/>
        <path id="Leg-Front" d="M27.155,13.648c-3.142.629-6.036,1.19-8.511,1.625C2.651,18.078-2.012,26.639.745,45.317H30.211c4.813-1.383,29.828-11.873,42.807-17.453,8.59-3.693,5.882-17.005,1.017-20.47a.475.475,0,0,0-.27-.422C47.6-3.872,26.9,1.818,19.982,0l-3.2,10.09Z" transform="translate(34.815 48.913)" fill="#2b44ff" fill-rule="evenodd"/>
        <g id="Accessories_Shoe_Flat-Sneaker" data-name="Accessories/Shoe/Flat-Sneaker" transform="matrix(0.438, -0.899, 0.899, 0.438, 34.842, 53.41)">
          <path id="shoe" d="M.906,7.884A11.6,11.6,0,0,1,0,4.263,27.1,27.1,0,0,1,.487,0h30.46q1.187,3.925-1.371,4.238t-4.25.565L11.168,11.115a.54.54,0,0,1-.713-.273l-.006-.014L9.539,8.62a9.712,9.712,0,0,0-3.849-1.1,8.716,8.716,0,0,0-3.323.972h0A1.08,1.08,0,0,1,.936,7.955Q.92,7.92.906,7.884Z" transform="translate(0 0)" fill="#e4e4e4" fill-rule="evenodd"/>
        </g>
        <g id="Accessories_Shoe_Flat-Sneaker-2" data-name="Accessories/Shoe/Flat-Sneaker" transform="translate(116.362 1.341)">
          <path id="shoe-2" data-name="shoe" d="M.906,7.884A11.6,11.6,0,0,1,0,4.263,27.1,27.1,0,0,1,.487,0h30.46q1.187,3.925-1.371,4.238t-4.25.565L11.168,11.115a.54.54,0,0,1-.713-.273l-.006-.014L9.539,8.62a9.712,9.712,0,0,0-3.849-1.1,8.716,8.716,0,0,0-3.323.972h0A1.08,1.08,0,0,1,.936,7.955Q.92,7.92.906,7.884Z" transform="translate(0 0)" fill="#e4e4e4" fill-rule="evenodd"/>
        </g>
      </g>
      <g id="Body_Jacket-2" data-name="Body/Jacket-2" transform="translate(5.941 60.747)">
        <path id="Skin-2" data-name="Skin" d="M105.85,48.271l19.569,8.594a46.354,46.354,0,0,0,9.93,7.789c.954.3,2.585.4.845-2.146s-3.456-5.293-2.761-6.184,2.709.092,3.5-1.356q.8-1.448-10.185-3.465L112.1,40.267ZM26.737,45.9l11.067-2.2Q21.11,12.6,19.9,10.731C18.081,7.931,19.777,2.8,20.4.1c-3.929-.915-2.379,5-7.351,3.764C8.513,2.734,4.666-.158.434,3.742c-.52.48-.9,1.979.873,2.747,4.419,1.916,10.948,5.5,12.007,6.894Q15.479,16.232,26.737,45.9Z" transform="translate(0 0)" fill="#b28b67" fill-rule="evenodd"/>
        <path id="Coat-Back" d="M0,53.357l4.582,1.2c10.993-8.943,17.194-32.2,24.22-34.73,6.643-2.4,15.443,1.255,25.863,6.058L58.6,18.817C49.755,7.387,29.713-3.369,20.826.992,6.618,7.966.954,36.819,0,53.357Z" transform="translate(63.231 34.155) rotate(-5)" fill="#db2721" fill-rule="evenodd"/>
        <path id="Shirt" d="M0,0H41.32c1.889,0,1.533,2.726,1.259,4.1C39.43,19.98,27.133,37.1,27.133,59.7L15.214,61.566C5.356,45.711,1.947,26.19,0,0Z" transform="translate(47.525 28.623)" fill="#dde3e9" fill-rule="evenodd"/>
        <path id="Coat-Front" d="M29.9,32.817Q17.267,10.026,8.661,0L0,1.7Q8.369,53.6,48.469,78.308h4.719Q69.238,23.6,62.037,5.4H24.842A135.777,135.777,0,0,0,29.9,32.817Z" transform="translate(13.501 11.881)" fill="#ff4133" fill-rule="evenodd"/>
      </g>
    </g>
  </g>
</svg>
