<svg xmlns="http://www.w3.org/2000/svg" width="39.49" height="39.629" viewBox="0 0 39.49 39.629">
  <path id="Icon_metro-lab" data-name="Icon metro-lab" d="M27.672,22.808,18.162,7.866V1.815h.962a.939.939,0,0,0,.962-.907A.939.939,0,0,0,19.124,0H9.5A.939.939,0,0,0,8.54.907a.939.939,0,0,0,.962.907h.962V7.866L.954,22.808c-2.178,3.423-.5,6.224,3.737,6.224H23.935c4.234,0,5.916-2.8,3.737-6.224ZM6.165,18.145l6.223-9.78V1.815h3.849V8.365l6.223,9.78Z" transform="matrix(0.857, 0.515, -0.515, 0.857, 14.953, 0)" fill="#030000"/>
</svg>
