<svg xmlns="http://www.w3.org/2000/svg" width="38" height="30.4" viewBox="0 0 38 30.4">
  <path id="Icon_material-fiber-new" data-name="Icon material-fiber-new" d="M37.2,6H6.8A3.771,3.771,0,0,0,3.019,9.8L3,32.6a3.787,3.787,0,0,0,3.8,3.8H37.2A3.787,3.787,0,0,0,41,32.6V9.8A3.787,3.787,0,0,0,37.2,6ZM15.35,26.9H13.07L8.225,20.25V26.9H5.85V15.5H8.225l4.75,6.65V15.5H15.35Zm9.5-9.006H20.1v2.128h4.75v2.394H20.1v2.109h4.75V26.9h-7.6V15.5h7.6v2.394ZM38.15,25a1.906,1.906,0,0,1-1.9,1.9h-7.6a1.906,1.906,0,0,1-1.9-1.9V15.5h2.375v8.569h2.147V17.381h2.375V24.05h2.128V15.5H38.15Z" transform="translate(-3 -6)" fill="#d91010"/>
</svg>
