<svg xmlns="http://www.w3.org/2000/svg" width="206" height="46" viewBox="0 0 206 46">
  <g id="Grupo_12" data-name="Grupo 12" transform="translate(-930 -1598)">
    <g id="Grupo_7" data-name="Grupo 7" transform="translate(930 1598)">
      <circle id="Elipse_2" data-name="Elipse 2" cx="22.5" cy="22.5" r="22.5" fill="#fff"/>
      <path id="Icon_awesome-instagram" data-name="Icon awesome-instagram" d="M10.4,7.3a5.331,5.331,0,1,0,5.331,5.331A5.323,5.323,0,0,0,10.4,7.3Zm0,8.8a3.466,3.466,0,1,1,3.466-3.466A3.472,3.472,0,0,1,10.4,16.1Zm6.793-9.015a1.243,1.243,0,1,1-1.243-1.243A1.241,1.241,0,0,1,17.189,7.085ZM20.72,8.347A6.154,6.154,0,0,0,19.04,3.99a6.194,6.194,0,0,0-4.357-1.68c-1.717-.1-6.862-.1-8.579,0A6.185,6.185,0,0,0,1.747,3.986,6.174,6.174,0,0,0,.068,8.343c-.1,1.717-.1,6.862,0,8.579a6.154,6.154,0,0,0,1.68,4.357A6.2,6.2,0,0,0,6.1,22.958c1.717.1,6.862.1,8.579,0a6.154,6.154,0,0,0,4.357-1.68,6.194,6.194,0,0,0,1.68-4.357c.1-1.717.1-6.858,0-8.575ZM18.5,18.764a3.509,3.509,0,0,1-1.977,1.977c-1.369.543-4.617.418-6.129.418s-4.765.121-6.129-.418A3.509,3.509,0,0,1,2.29,18.764c-.543-1.369-.418-4.617-.418-6.129s-.121-4.765.418-6.129A3.509,3.509,0,0,1,4.267,4.529c1.369-.543,4.617-.418,6.129-.418s4.765-.121,6.129.418A3.509,3.509,0,0,1,18.5,6.505c.543,1.369.418,4.617.418,6.129S19.045,17.4,18.5,18.764Z" transform="translate(12.202 10.021)" fill="#4062bb"/>
    </g>
    <g id="Grupo_8" data-name="Grupo 8" transform="translate(981.472 1598)">
      <circle id="Elipse_3" data-name="Elipse 3" cx="22.5" cy="22.5" r="22.5" transform="translate(-0.472)" fill="#fff"/>
      <path id="Icon_ionic-logo-pinterest" data-name="Icon ionic-logo-pinterest" d="M12.643,2.25A10.394,10.394,0,0,0,8.472,22.164a9.2,9.2,0,0,1,.181-2.385c.2-.844,1.336-5.665,1.336-5.665a3.968,3.968,0,0,1-.334-1.643c0-1.54.891-2.691,2-2.691a1.39,1.39,0,0,1,1.4,1.559,22.484,22.484,0,0,1-.919,3.689,1.607,1.607,0,0,0,1.643,2c1.967,0,3.294-2.529,3.294-5.526,0-2.278-1.536-3.981-4.324-3.981A4.925,4.925,0,0,0,7.637,12.5a3,3,0,0,0,.687,2.037.508.508,0,0,1,.148.58c-.051.19-.162.65-.213.835a.357.357,0,0,1-.52.26c-1.452-.594-2.13-2.181-2.13-3.972,0-2.951,2.492-6.491,7.428-6.491,3.967,0,6.579,2.872,6.579,5.953,0,4.078-2.269,7.122-5.61,7.122a2.982,2.982,0,0,1-2.538-1.295s-.6,2.394-.733,2.858a8.639,8.639,0,0,1-1.044,2.227A10.4,10.4,0,1,0,12.643,2.25Z" transform="translate(9.628 9.628)" fill="#4062bb"/>
    </g>
    <g id="Grupo_9" data-name="Grupo 9" transform="translate(1036.244 1598.66)">
      <circle id="Elipse_4" data-name="Elipse 4" cx="22.5" cy="22.5" r="22.5" transform="translate(-0.244 0.34)" fill="#fff"/>
      <path id="Icon_simple-twitter" data-name="Icon simple-twitter" d="M23.711,5.668a9.9,9.9,0,0,1-2.8.767,4.908,4.908,0,0,0,2.141-2.7,10.06,10.06,0,0,1-3.1,1.172,4.869,4.869,0,0,0-8.425,3.324,4.984,4.984,0,0,0,.126,1.113A13.793,13.793,0,0,1,1.623,4.275a4.773,4.773,0,0,0-.659,2.45A4.871,4.871,0,0,0,3.13,10.779a4.855,4.855,0,0,1-2.205-.61v.06A4.873,4.873,0,0,0,4.83,15.008a4.915,4.915,0,0,1-2.19.084A4.887,4.887,0,0,0,7.2,18.474a9.768,9.768,0,0,1-6.04,2.084A10.337,10.337,0,0,1,0,20.491a13.853,13.853,0,0,0,7.48,2.187A13.756,13.756,0,0,0,21.337,8.834c0-.207,0-.416-.015-.624a9.835,9.835,0,0,0,2.435-2.522l-.047-.02Z" transform="translate(10.558 9.169)" fill="#4062bb"/>
    </g>
    <g id="Grupo_10" data-name="Grupo 10" transform="translate(1091.127 1598)">
      <circle id="Elipse_6" data-name="Elipse 6" cx="22.5" cy="22.5" r="22.5" transform="translate(-0.127)" fill="#fff"/>
      <path id="Icon_awesome-facebook-f" data-name="Icon awesome-facebook-f" d="M13.5,13.363l.66-4.3H10.034V6.274a2.15,2.15,0,0,1,2.424-2.323h1.875V.29A22.871,22.871,0,0,0,11,0c-3.4,0-5.618,2.059-5.618,5.787V9.064H1.609v4.3H5.386V23.756h4.648V13.363Z" transform="translate(14.578 10.314)" fill="#4062bb"/>
    </g>
  </g>
</svg>
