<svg xmlns="http://www.w3.org/2000/svg" width="234.438" height="182.95" viewBox="0 0 234.438 182.95">
  <g id="Symbols" transform="translate(-4.53 80.098) rotate(-24)">
    <g id="Scene_Plants" data-name="Scene/Plants" transform="translate(0 -13.731)">
      <g id="Top-Leaves" transform="translate(0 0)">
        <path id="Leaf" d="M88.646,101.642C87.961,94.1,82.983,86.75,77.611,79.754,67.153,66.134,61.77,58.065,61.366,42.982c-.237-8.871-.37-18.233-7.445-26.911C48.77,9.751,38.7,2.576,29.01,2.753,13.783,4,6.449,14.318,4.458,25.046,1.99,38.344,7.949,48.973,22.778,58.985c8.356,5.64,13.348,11.121,16.374,18.829,2.421,6.164,2.775,13.012,6.371,19.055,5.376,9.034,13.832,15.02,25.783,17.693-6.318-17.512-14.422-35.749-25.9-52.5-1.048-1.649-8.027-8.925-5.667-10.388,2.6-1.611,8.564,9.551,8.519,9.481,3.287,5.018,6.169,10.152,8.966,15.3h-.037c2.883,5.285,5.715,10.618,8.451,15.974,1.082,2.241,2.114,4.491,3.063,6.761,1.393,3.332,2.546,11.877,5.69,14.669a8.051,8.051,0,0,0,1.987,1.323c1.569,3.677,3.064,7.355,4.428,11.028,3.563,9.594,6.131,19.335,5.712,28.724-.122,2.74-3.67,11.986-1.807,14.6,3.406,4.777,4.169-2.043,4.528-4.06,2.965-16.7-.81-32.983-8.35-50.286,4.743-2.154,8.035-10.489,7.758-13.545" transform="translate(61.234 17.184) rotate(-18)" fill="#59c3c3" fill-rule="evenodd"/>
        <path id="Leaf-2" data-name="Leaf" d="M32.43,110.8c-7.6-1.112-14.777-10.72-18.318-17.126C9.731,85.748,6.676,76.7,4.374,68,.581,53.652.069,37.733.022,23.042.016,21.272-.353-.351,2.175,0c2.5.351.918,22.8,1.132,27.444.455,9.918-.225,19.7,2.1,29.493A93.494,93.494,0,0,0,17.813,85.4c.716,1.124,2.232,5.3,3.954,4.338,1.684-.944-2.981-6.512-3.644-7.594a95.879,95.879,0,0,1-7.077-14.061A74.092,74.092,0,0,1,5.511,39.628c5.785-.889,10.825,2.5,12.766,8.144,1.676,4.878,1.84,10.554,3.745,15.167a22.483,22.483,0,0,0,5.95,8.156C34.7,77.113,41.73,78.618,43.736,88.6c1.573,7.829-.38,23.787-11.306,22.2" transform="translate(150.403 112.45) rotate(122)" fill="#59c3c3" fill-rule="evenodd"/>
        <path id="Leaf-Me-Alone_" data-name="Leaf-Me-Alone!" d="M2.352,16H0a78.48,78.48,0,0,0,.884,8.915c1.891,11.062,7.8,27.31,20.766,29.105a33.776,33.776,0,0,0,4.369-.045,7.939,7.939,0,0,0,3.334.974c11.038.805,23.365-8,28.689-17.172,4.292-7.391,3.569-17.1.918-24.95C57.184,7.569,53.31.074,46.848,0c-8.084-.091-8.474,9.793-8.63,15.571-.208,7.682-1.189,14.374-7.308,19.611-1.426,1.22-2.985,2.293-4.425,3.5-2.256,1.883-4.748,3.811-5.039,6.926-.4,4.3,2.051,5.071,5.8,4.272.638-.136,7.067-2.99,6.115-.734-.291.689-1.352,1.235-2.692,1.644-3.467.373-7.6.806-8.79.547C9.047,48.55,4.053,30.972,2.726,19.8,2.576,18.54,2.456,17.271,2.352,16Z" transform="translate(61.105 79.868) rotate(180)" fill="#59c3c3" fill-rule="evenodd"/>
      </g>
    </g>
  </g>
</svg>
